REM DIRINDEX 1\5,1\2\6,1\2\7,1\3\8,1\3\9,1\4\10,1\4\11,1\4\12
REM DIRNAME cjc026,folder01,folder02,folder03,folder04,folder05,folder06,folder07,folder08,folder09,folder10,folder11
TITLE ""
FILE "JE_DB3000_5th_4B_37.mp3" MP3
  TRACK 01 AUDIO
    TITLE "0:"
    INDEX 01 00:00:00
  TRACK 02 AUDIO
    TITLE "6:cjc026_01753"
    INDEX 01 00:00:08
  TRACK 03 AUDIO
    TITLE "0:"
    INDEX 01 00:01:30
  TRACK 04 AUDIO
    TITLE "7:cjc026_01754"
    INDEX 01 00:01:62
  TRACK 05 AUDIO
    TITLE "0:"
    INDEX 01 00:03:12
  TRACK 06 AUDIO
    TITLE "6:cjc026_01755"
    INDEX 01 00:03:50
  TRACK 07 AUDIO
    TITLE "0:"
    INDEX 01 00:05:05
  TRACK 08 AUDIO
    TITLE "7:cjc026_01756"
    INDEX 01 00:05:43
  TRACK 09 AUDIO
    TITLE "0:"
    INDEX 01 00:06:60
  TRACK 10 AUDIO
    TITLE "6:cjc026_01757"
    INDEX 01 00:07:20
  TRACK 11 AUDIO
    TITLE "0:"
    INDEX 01 00:08:42
  TRACK 12 AUDIO
    TITLE "7:cjc026_01758"
    INDEX 01 00:09:02
  TRACK 13 AUDIO
    TITLE "0:"
    INDEX 01 00:10:30
  TRACK 14 AUDIO
    TITLE "6:cjc026_01759"
    INDEX 01 00:10:62
  TRACK 15 AUDIO
    TITLE "0:"
    INDEX 01 00:12:31
  TRACK 16 AUDIO
    TITLE "7:cjc026_01760"
    INDEX 01 00:12:63
  TRACK 17 AUDIO
    TITLE "0:"
    INDEX 01 00:14:27
  TRACK 18 AUDIO
    TITLE "6:cjc026_01761"
    INDEX 01 00:14:62
  TRACK 19 AUDIO
    TITLE "0:"
    INDEX 01 00:16:17
  TRACK 20 AUDIO
    TITLE "7:cjc026_01762"
    INDEX 01 00:16:52
  TRACK 21 AUDIO
    TITLE "0:"
    INDEX 01 00:18:13
  TRACK 22 AUDIO
    TITLE "6:cjc026_01763"
    INDEX 01 00:18:45
  TRACK 23 AUDIO
    TITLE "0:"
    INDEX 01 00:20:12
  TRACK 24 AUDIO
    TITLE "7:cjc026_01764"
    INDEX 01 00:20:49
  TRACK 25 AUDIO
    TITLE "0:"
    INDEX 01 00:23:30
  TRACK 26 AUDIO
    TITLE "6:cjc026_01765"
    INDEX 01 00:23:67
  TRACK 27 AUDIO
    TITLE "0:"
    INDEX 01 00:25:47
  TRACK 28 AUDIO
    TITLE "7:cjc026_01766"
    INDEX 01 00:26:10
  TRACK 29 AUDIO
    TITLE "0:"
    INDEX 01 00:27:37
  TRACK 30 AUDIO
    TITLE "6:cjc026_01767"
    INDEX 01 00:27:72
  TRACK 31 AUDIO
    TITLE "0:"
    INDEX 01 00:29:41
  TRACK 32 AUDIO
    TITLE "7:cjc026_01768"
    INDEX 01 00:29:74
  TRACK 33 AUDIO
    TITLE "0:"
    INDEX 01 00:31:24
  TRACK 34 AUDIO
    TITLE "6:cjc026_01769"
    INDEX 01 00:31:61
  TRACK 35 AUDIO
    TITLE "0:"
    INDEX 01 00:33:27
  TRACK 36 AUDIO
    TITLE "7:cjc026_01770"
    INDEX 01 00:33:65
  TRACK 37 AUDIO
    TITLE "0:"
    INDEX 01 00:35:23
  TRACK 38 AUDIO
    TITLE "6:cjc026_01771"
    INDEX 01 00:35:61
  TRACK 39 AUDIO
    TITLE "0:"
    INDEX 01 00:37:08
  TRACK 40 AUDIO
    TITLE "7:cjc026_01772"
    INDEX 01 00:37:43
  TRACK 41 AUDIO
    TITLE "0:"
    INDEX 01 00:39:07
  TRACK 42 AUDIO
    TITLE "6:cjc026_01773"
    INDEX 01 00:39:42
  TRACK 43 AUDIO
    TITLE "0:"
    INDEX 01 00:40:61
  TRACK 44 AUDIO
    TITLE "7:cjc026_01774"
    INDEX 01 00:41:21
  TRACK 45 AUDIO
    TITLE "0:"
    INDEX 01 00:42:41
  TRACK 46 AUDIO
    TITLE "6:cjc026_01775"
    INDEX 01 00:42:73
  TRACK 47 AUDIO
    TITLE "0:"
    INDEX 01 00:44:42
  TRACK 48 AUDIO
    TITLE "7:cjc026_01776"
    INDEX 01 00:45:00
  TRACK 49 AUDIO
    TITLE "0:"
    INDEX 01 00:46:30
  TRACK 50 AUDIO
    TITLE "6:cjc026_01777"
    INDEX 01 00:46:65
  TRACK 51 AUDIO
    TITLE "0:"
    INDEX 01 00:49:42
  TRACK 52 AUDIO
    TITLE "7:cjc026_01778"
    INDEX 01 00:50:05
  TRACK 53 AUDIO
    TITLE "0:"
    INDEX 01 00:51:30
  TRACK 54 AUDIO
    TITLE "6:cjc026_01779"
    INDEX 01 00:51:65
  TRACK 55 AUDIO
    TITLE "0:"
    INDEX 01 00:54:67
  TRACK 56 AUDIO
    TITLE "7:cjc026_01780"
    INDEX 01 00:55:27
  TRACK 57 AUDIO
    TITLE "0:"
    INDEX 01 00:56:55
  TRACK 58 AUDIO
    TITLE "6:cjc026_01781"
    INDEX 01 00:57:18
  TRACK 59 AUDIO
    TITLE "0:"
    INDEX 01 00:58:64
  TRACK 60 AUDIO
    TITLE "7:cjc026_01782"
    INDEX 01 00:59:27
  TRACK 61 AUDIO
    TITLE "0:"
    INDEX 01 01:00:54
